<svg width="106" height="292" viewBox="0 0 106 292" fill="none" xmlns="http://www.w3.org/2000/svg">
<rect width="15.0601" height="15.0601" transform="matrix(0.653006 0.757353 -0.653006 0.757353 9.83435 0)" fill="#D41D24"/>
<rect width="15.0601" height="15.0601" transform="matrix(0.653006 0.757353 -0.653006 0.757353 9.83435 75.2742)" fill="#D41D24"/>
<rect width="15.0601" height="15.0601" transform="matrix(0.653006 0.757353 -0.653006 0.757353 9.83435 147.86)" fill="#D41D24"/>
<rect width="15.0601" height="15.0601" transform="matrix(0.653006 0.757353 -0.653006 0.757353 9.83435 223.135)" fill="#D41D24"/>
<rect width="15.0601" height="15.0601" transform="matrix(0.653006 0.757353 -0.653006 0.757353 95.9969 0)" fill="#D41D24"/>
<rect width="15.0601" height="15.0601" transform="matrix(0.653006 0.757353 -0.653006 0.757353 95.9969 75.2742)" fill="#D41D24"/>
<rect width="15.0601" height="15.0601" transform="matrix(0.653006 0.757353 -0.653006 0.757353 95.9969 147.86)" fill="#D41D24"/>
<rect width="15.0601" height="15.0601" transform="matrix(0.653006 0.757353 -0.653006 0.757353 95.9969 223.135)" fill="#D41D24"/>
<rect width="15.0601" height="15.0601" transform="matrix(0.653006 0.757353 -0.653006 0.757353 51.9554 45.7023)" fill="#D41D24"/>
<rect width="15.0601" height="15.0601" transform="matrix(0.653006 0.757353 -0.653006 0.757353 51.9554 120.977)" fill="#D41D24"/>
<rect width="15.0601" height="15.0601" transform="matrix(0.653006 0.757353 -0.653006 0.757353 51.9554 193.562)" fill="#D41D24"/>
<rect width="15.0601" height="15.0601" transform="matrix(0.653006 0.757353 -0.653006 0.757353 51.9554 268.837)" fill="#D41D24"/>
</svg>
